<?xml version="1.0" encoding="UTF-8" standalone="no"?>
<svg
   xmlns:dc="http://purl.org/dc/elements/1.1/"
   xmlns:cc="http://creativecommons.org/ns#"
   xmlns:rdf="http://www.w3.org/1999/02/22-rdf-syntax-ns#"
   xmlns:svg="http://www.w3.org/2000/svg"
   xmlns="http://www.w3.org/2000/svg"
   viewBox="0 0 84 84"
   height="84"
   width="84"
   xml:space="preserve"
   id="svg2"
   version="1.1"><metadata
     id="metadata8"><rdf:RDF><cc:Work
         rdf:about=""><dc:format>image/svg+xml</dc:format><dc:type
           rdf:resource="http://purl.org/dc/dcmitype/StillImage" /></cc:Work></rdf:RDF></metadata><defs
     id="defs6" /><g
     transform="matrix(1.3333333,0,0,-1.3333333,0,84)"
     id="g10"><g
       transform="scale(0.1)"
       id="g12"><path
         id="path14"
         style="fill:#cc0000;fill-opacity:1;fill-rule:nonzero;stroke:none"
         d="M 617.488,397.363 C 662.047,231.074 563.359,60.1328 397.066,15.5742 230.77,-28.9844 59.8281,69.7031 15.2695,236 -29.293,402.301 69.4023,573.238 235.707,617.797 401.988,662.355 572.926,563.664 617.488,397.363" /><path
         id="path16"
         style="fill:#ffffff;fill-opacity:1;fill-rule:evenodd;stroke:none"
         d="m 316.379,63.3164 c 54.559,43.6446 153.973,127.2776 153.973,214.5666 0,70.316 -52.137,87.293 -80.024,87.293 -27.883,0 -65.465,-20.61 -73.949,-48.492 -8.488,27.882 -46.07,48.492 -73.957,48.492 -27.883,0 -80.02,-16.977 -80.02,-87.293 0,-87.289 99.418,-170.922 153.977,-214.5666 z m 104.18,85.2186 c -32.055,-37.726 -70.938,-69.8905 -98.536,-91.9725 -3.14,-2.6289 -7.812,-2.7773 -11.136,-0.1211 -27.606,22.0859 -66.578,54.3006 -98.692,92.0936 -32.851,38.664 -58.632,83.246 -58.632,129.348 0,31.379 9.765,53.226 23.417,68.121 l 0.02,-0.016 c 19.672,21.446 47.234,28.028 65.422,28.028 16.281,0 35.387,-6.219 51.133,-16.543 8.949,-5.868 16.918,-13.129 22.824,-21.426 5.902,8.293 13.867,15.555 22.82,21.426 15.742,10.32 34.852,16.543 51.129,16.543 18.043,0 45.309,-6.477 64.957,-27.524 0.168,-0.156 0.332,-0.316 0.488,-0.488 13.657,-14.895 23.422,-36.742 23.422,-68.121 0,-46.102 -25.781,-90.684 -58.636,-129.348" /><path
         id="path18"
         style="fill:#ffffff;fill-opacity:1;fill-rule:evenodd;stroke:none"
         d="m 443.063,97.2617 c 25.425,65.0783 69.707,187.2153 26.058,262.8083 -35.156,60.891 -88.797,49.524 -112.949,35.582 -24.149,-13.941 -46.383,-50.578 -39.793,-78.968 -21.293,19.902 -64.145,18.961 -88.293,5.015 C 203.934,307.758 167.273,266.992 202.43,206.098 246.078,130.5 373.988,107.781 443.063,97.2617 Z M 490.676,223.152 C 481.777,174.43 464.16,127.094 451.297,94.168 c -1.426,-3.8086 -5.371,-6.2344 -9.555,-5.6055 -34.953,5.3242 -84.816,13.7425 -131.512,30.4105 -47.785,17.058 -92.406,42.777 -115.457,82.703 l 0.032,0.015 -0.012,0.016 c -19.168,33.219 -18.629,61.297 -9.957,83.051 8.656,21.726 25.477,36.894 38.82,44.594 l 0.008,0.003 c 14.094,8.137 33.758,12.309 52.555,11.239 10.687,-0.606 21.222,-2.91 30.48,-7.145 0.965,10.137 4.231,20.41 9.051,29.969 8.473,16.816 21.91,31.754 36,39.891 13.348,7.703 34.891,14.691 58.043,11.328 23.203,-3.375 47.809,-16.942 66.98,-50.145 h 0.004 l -0.031,-0.019 h 0.004 c 23.063,-39.953 23.039,-91.442 13.926,-141.321" /><path
         id="path20"
         style="fill:#ffffff;fill-opacity:1;fill-rule:evenodd;stroke:none"
         d="m 535.801,190 c -10.52,69.07 -33.238,196.984 -108.836,240.629 -60.895,35.156 -101.668,-1.508 -115.61,-25.66 -13.941,-24.149 -14.882,-66.996 5.024,-88.285 -28.395,6.589 -65.035,-15.653 -78.977,-39.805 C 223.461,252.73 212.094,199.094 272.988,163.938 348.586,120.293 470.723,164.57 535.801,190 Z M 514.09,322.832 c 16.637,-46.605 25.055,-96.367 30.375,-131.312 0.711,-4.043 -1.492,-8.165 -5.461,-9.715 -32.93,-12.864 -80.316,-30.512 -129.098,-39.422 -49.906,-9.117 -101.414,-9.153 -141.34,13.898 -27.148,15.672 -41.179,35.051 -47.25,54.324 -8.75,27.778 -0.664,54.946 8.43,70.7 8.137,14.09 23.078,27.531 39.891,36.008 9.566,4.816 19.836,8.082 29.972,9.046 -4.234,9.258 -6.539,19.793 -7.148,30.481 -1.047,18.441 2.977,37.746 10.859,51.812 0.114,0.25 0.239,0.496 0.379,0.739 9.02,15.621 28.258,35.996 56.297,42.488 0.227,0.07 0.453,0.133 0.684,0.184 19.695,4.371 43.488,1.894 70.687,-13.805 39.953,-23.067 65.676,-67.672 82.723,-115.426" /><path
         id="path22"
         style="fill:#ffffff;fill-opacity:1;fill-rule:evenodd;stroke:none"
         d="m 316.379,316.684 c -27.887,-8.493 -48.496,-46.071 -48.496,-73.957 0,-27.887 16.976,-80.02 87.289,-80.02 87.293,0 170.926,99.414 214.57,153.977 -43.644,54.558 -127.277,153.968 -214.57,153.968 -70.313,0 -87.289,-52.132 -87.289,-80.019 0,-27.887 20.609,-65.465 48.496,-73.949 z m 168.144,104.179 c 37.727,-32.054 69.887,-70.937 91.969,-98.539 2.633,-3.14 2.781,-7.808 0.125,-11.133 -22.086,-27.609 -54.301,-66.582 -92.094,-98.691 -38.66,-32.855 -83.246,-58.633 -129.351,-58.633 -31.356,0 -53.188,9.762 -68.086,23.418 -21.461,19.676 -28.043,47.25 -28.043,65.442 0,16.277 6.219,35.382 16.543,51.128 5.871,8.958 13.133,16.926 21.43,22.829 -8.293,5.898 -15.555,13.867 -21.43,22.82 -10.324,15.742 -16.543,34.851 -16.543,51.129 0,30.965 18.695,88.863 96.129,88.863 46.109,0 90.691,-25.785 129.351,-58.633" /><path
         id="path24"
         style="fill:#ffffff;fill-opacity:1;fill-rule:evenodd;stroke:none"
         d="m 316.379,316.684 c -19.906,-21.297 -18.965,-64.149 -5.02,-88.297 13.942,-24.149 54.711,-60.809 115.606,-25.653 75.598,43.645 98.316,171.555 108.836,240.629 -65.078,25.426 -187.215,69.707 -262.813,26.063 -60.894,-35.16 -49.527,-88.797 -35.582,-112.949 13.942,-24.149 50.578,-46.387 78.973,-39.793 z m 93.527,174.296 c 48.723,-8.902 96.059,-26.519 128.985,-39.382 3.812,-1.426 6.238,-5.371 5.605,-9.555 -5.32,-34.953 -13.738,-84.813 -30.406,-131.512 -17.059,-47.785 -42.777,-92.402 -82.703,-115.453 -27.157,-15.676 -50.949,-18.137 -70.676,-13.762 -28.43,6.305 -47.914,26.895 -57.008,42.649 -8.14,14.094 -12.308,33.758 -11.242,52.555 0.609,10.691 2.914,21.222 7.148,30.48 -10.136,0.965 -20.406,4.23 -29.968,9.051 -16.813,8.469 -31.754,21.906 -39.891,36.004 -9.098,15.754 -17.184,42.922 -8.434,70.699 6.063,19.242 20.094,38.605 47.27,54.297 39.953,23.066 91.441,23.043 141.32,13.929" /><path
         id="path26"
         style="fill:#ffffff;fill-opacity:1;fill-rule:evenodd;stroke:none"
         d="M 443.063,536.102 C 373.988,525.582 246.078,502.863 202.43,427.266 c -35.157,-60.895 1.508,-101.664 25.656,-115.606 24.148,-13.945 67,-14.883 88.293,5.024 -6.59,-28.399 15.648,-65.036 39.801,-78.977 24.148,-13.945 77.785,-25.309 112.941,35.586 43.649,75.598 -0.633,197.73 -26.058,262.809 z M 310.23,514.391 c 46.606,16.636 96.368,25.054 131.313,30.375 4.039,0.711 8.16,-1.493 9.711,-5.461 12.867,-32.93 30.512,-80.317 39.422,-129.098 9.117,-49.906 9.156,-101.41 -13.899,-141.336 l -0.007,-0.008 c -19.168,-33.203 -43.774,-46.765 -66.973,-50.136 -23.152,-3.368 -44.695,3.617 -58.035,11.32 l -0.004,0.004 c -14.094,8.137 -27.535,23.074 -36.008,39.89 -4.82,9.563 -8.086,19.836 -9.051,29.973 -9.258,-4.23 -19.789,-6.543 -30.48,-7.148 -18.446,-1.051 -37.754,2.972 -51.817,10.855 -0.25,0.117 -0.496,0.242 -0.738,0.383 -13.34,7.703 -30.168,22.867 -38.828,44.598 -8.668,21.757 -9.231,49.804 9.863,82.953 l 0.074,0.133 c 23.051,39.925 67.672,65.644 115.457,82.703" /><path
         id="path28"
         style="fill:#ffffff;fill-opacity:1;fill-rule:evenodd;stroke:none"
         d="m 316.379,316.684 c 8.484,-27.887 46.066,-48.496 73.957,-48.496 27.883,0 80.016,16.976 80.016,87.289 0,87.289 -99.414,170.925 -153.973,214.57 -54.559,-43.645 -153.977,-127.281 -153.977,-214.57 0,-70.313 52.137,-87.289 80.028,-87.289 27.883,0 65.461,20.609 73.949,48.496 z m -104.184,168.14 c 32.055,37.727 70.938,69.891 98.539,91.973 3.141,2.633 7.809,2.777 11.133,0.121 27.61,-22.082 66.578,-54.301 98.692,-92.094 32.855,-38.66 58.636,-83.246 58.636,-129.347 0,-31.356 -9.765,-53.188 -23.422,-68.086 -19.675,-21.465 -47.246,-28.047 -65.437,-28.047 -16.277,0 -35.391,6.222 -51.133,16.547 -8.953,5.871 -16.922,13.132 -22.824,21.429 -5.902,-8.297 -13.871,-15.558 -22.824,-21.429 -15.742,-10.325 -34.852,-16.547 -51.125,-16.547 -30.969,0 -88.867,18.699 -88.867,96.133 0,46.101 25.781,90.687 58.632,129.347" /><path
         id="path30"
         style="fill:#ffffff;fill-opacity:1;fill-rule:evenodd;stroke:none"
         d="M 189.695,536.102 C 164.27,471.023 119.988,348.891 163.637,273.293 c 35.156,-60.895 88.793,-49.527 112.945,-35.586 24.148,13.941 46.387,50.578 39.797,78.977 21.293,-19.907 64.141,-18.965 88.293,-5.024 24.152,13.942 60.812,54.711 25.652,115.606 -43.644,75.597 -171.558,98.316 -240.629,108.836 z M 142.078,410.207 c 8.902,48.723 26.52,96.059 39.379,128.984 1.426,3.813 5.371,6.239 9.555,5.606 34.957,-5.32 84.816,-13.738 131.515,-30.406 47.782,-17.059 92.407,-42.778 115.453,-82.703 l -0.027,-0.016 0.008,-0.016 c 19.172,-33.218 18.629,-61.297 9.957,-83.054 -8.656,-21.727 -25.477,-36.891 -38.82,-44.594 l -0.004,-0.004 c -14.098,-8.137 -33.758,-12.309 -52.555,-11.238 -10.691,0.605 -21.223,2.918 -30.484,7.148 -0.965,-10.137 -4.227,-20.41 -9.047,-29.973 -8.473,-16.816 -21.914,-31.753 -36.004,-39.89 -13.344,-7.703 -34.887,-14.692 -58.043,-11.324 -23.199,3.371 -47.809,16.937 -66.977,50.14 l -0.004,0.004 c -23.054,39.926 -23.019,91.43 -13.902,141.336" /><path
         id="path32"
         style="fill:#ffffff;fill-opacity:1;fill-rule:evenodd;stroke:none"
         d="m 96.957,443.363 c 10.52,-69.074 33.238,-196.984 108.836,-240.629 60.895,-35.156 101.664,1.504 115.609,25.657 13.942,24.148 14.879,66.996 -5.023,88.293 28.391,-6.594 65.031,15.644 78.976,39.796 13.938,24.153 25.305,77.786 -35.585,112.946 -75.598,43.644 -197.735,-0.637 -262.813,-26.063 z m 21.711,-132.832 c -16.637,46.606 -25.0547,96.367 -30.375,131.313 -0.7149,4.039 1.4883,8.16 5.457,9.711 32.934,12.867 80.32,30.511 129.098,39.425 49.57,9.055 100.734,9.133 140.578,-13.507 0.258,-0.114 0.512,-0.246 0.765,-0.391 27.145,-15.676 41.176,-35.051 47.25,-54.324 8.606,-27.32 0.879,-54.09 -8.046,-69.957 -0.118,-0.25 -0.243,-0.5 -0.383,-0.742 -8.141,-14.094 -23.078,-27.532 -39.895,-36.008 -9.562,-4.821 -19.836,-8.086 -29.969,-9.051 4.231,-9.258 6.54,-19.789 7.145,-30.477 1.051,-18.441 -2.977,-37.75 -10.855,-51.812 -0.118,-0.25 -0.239,-0.496 -0.379,-0.742 -7.707,-13.344 -22.868,-30.168 -44.602,-38.828 -21.754,-8.668 -49.801,-9.235 -82.953,9.863 l -0.133,0.074 c -39.926,23.051 -65.648,67.668 -82.703,115.453" /><path
         id="path34"
         style="fill:#ffffff;fill-opacity:1;fill-rule:evenodd;stroke:none"
         d="M 63.0156,316.684 C 106.66,262.121 190.289,162.707 277.582,162.707 c 70.316,0 87.293,52.137 87.293,80.023 0,27.887 -20.613,65.461 -48.496,73.954 27.883,8.484 48.496,46.066 48.496,73.953 0,27.886 -16.977,80.015 -87.293,80.015 -87.293,0 -170.922,-99.41 -214.5664,-153.968 z M 148.234,212.5 c -37.726,32.051 -69.8902,70.938 -91.9723,98.539 -2.6289,3.141 -2.7773,7.809 -0.1211,11.133 22.086,27.609 54.2974,66.578 92.0934,98.691 38.661,32.848 83.243,58.633 129.348,58.633 31.359,0 53.191,-9.766 68.086,-23.422 21.465,-19.672 28.047,-47.242 28.047,-65.437 0,-16.278 -6.219,-35.387 -16.547,-51.129 -5.871,-8.957 -13.133,-16.922 -21.43,-22.824 8.297,-5.907 15.559,-13.871 21.43,-22.829 10.328,-15.738 16.547,-34.847 16.547,-51.125 0,-30.964 -18.699,-88.863 -96.133,-88.863 -46.105,0 -90.687,25.778 -129.348,58.633" /><path
         id="path36"
         style="fill:#ffffff;fill-opacity:1;fill-rule:evenodd;stroke:none"
         d="m 96.957,190 c 65.078,-25.43 187.215,-69.707 262.813,-26.062 60.89,35.156 49.523,88.796 35.582,112.949 -13.946,24.148 -50.582,46.386 -78.973,39.797 19.902,21.289 18.965,64.14 5.019,88.293 -13.945,24.148 -54.71,60.808 -115.605,25.652 C 130.195,386.984 107.477,259.07 96.957,190 Z m 125.891,-47.617 c -48.719,8.902 -96.055,26.519 -128.9847,39.379 -3.8086,1.426 -6.2344,5.371 -5.6016,9.554 5.3203,34.957 13.7383,84.821 30.4063,131.516 16.937,47.453 42.449,91.793 81.973,114.984 0.23,0.164 0.476,0.321 0.73,0.469 27.172,15.688 50.977,18.153 70.703,13.778 l -0.008,-0.024 c 28.418,-6.309 47.895,-26.891 56.989,-42.641 8.136,-14.097 12.308,-33.757 11.238,-52.554 -0.605,-10.692 -2.914,-21.223 -7.148,-30.485 10.136,-0.964 20.41,-4.23 29.972,-9.046 16.481,-8.305 31.172,-21.422 39.418,-35.266 0.168,-0.238 0.324,-0.484 0.473,-0.738 9.097,-15.754 17.183,-42.926 8.433,-70.704 -6.074,-19.273 -20.105,-38.652 -47.25,-54.324 -39.925,-23.051 -91.433,-23.015 -141.343,-13.898" /><path
         id="path38"
         style="fill:#ffffff;fill-opacity:1;fill-rule:evenodd;stroke:none"
         d="M 189.695,97.2617 C 258.766,107.781 386.68,130.5 430.324,206.098 c 35.16,60.894 -1.504,101.66 -25.656,115.605 -24.148,13.942 -66.996,14.883 -88.289,-5.019 6.59,28.39 -15.652,65.027 -39.801,78.972 C 252.43,409.598 198.793,420.961 163.637,360.07 119.988,284.477 164.27,162.34 189.695,97.2617 Z M 322.527,118.973 C 275.918,102.336 226.16,93.918 191.215,88.5938 c -4.043,-0.711 -8.16,1.4921 -9.711,5.4609 -12.867,32.9333 -30.512,80.3203 -39.426,129.0973 -9.055,49.571 -9.133,100.731 13.508,140.575 0.117,0.261 0.25,0.511 0.394,0.765 l 0.004,0.008 c 19.168,33.203 43.778,46.762 66.977,50.137 23.148,3.363 44.691,-3.621 58.035,-11.321 L 281,403.313 c 14.094,-8.141 27.531,-23.079 36.008,-39.895 4.82,-9.559 8.082,-19.832 9.047,-29.969 9.261,4.235 19.797,6.543 30.484,7.149 18.441,1.047 37.754,-2.973 51.816,-10.86 0.247,-0.117 0.497,-0.242 0.735,-0.379 13.344,-7.707 30.172,-22.867 38.828,-44.601 8.672,-21.754 9.23,-49.801 -9.863,-82.949 l -0.075,-0.133 C 414.934,161.75 370.309,136.031 322.527,118.973" /><path
         id="path40"
         style="fill:#ffffff;fill-opacity:1;fill-rule:evenodd;stroke:none"
         d="m 585.621,398.004 h -0.004 c -4.707,-1.262 -7.531,-6.149 -6.269,-10.859 v 0 c 1.265,-4.711 6.148,-7.532 10.859,-6.27 h 0.004 c 4.703,1.262 7.527,6.148 6.266,10.855 v 0.004 c -1.262,4.707 -6.149,7.528 -10.856,6.27" /><path
         id="path42"
         style="fill:#ffffff;fill-opacity:1;fill-rule:evenodd;stroke:none"
         d="m 508.887,521.73 v -0.003 c -3.449,-3.45 -3.449,-9.09 -0.004,-12.536 l 0.004,-0.003 c 3.449,-3.446 9.09,-3.446 12.539,0 v 0.003 c 3.445,3.446 3.445,9.086 0,12.536 l -0.004,0.003 c -3.445,3.442 -9.086,3.442 -12.535,0" /><path
         id="path44"
         style="fill:#ffffff;fill-opacity:1;fill-rule:evenodd;stroke:none"
         d="m 380.574,590.512 -0.004,-0.004 c -1.261,-4.707 1.559,-9.594 6.27,-10.856 h 0.004 c 4.707,-1.261 9.594,1.559 10.855,6.266 v 0.004 c 1.262,4.707 -1.558,9.594 -6.269,10.855 v 0 c -4.711,1.262 -9.598,-1.558 -10.856,-6.265" /><path
         id="path46"
         style="fill:#ffffff;fill-opacity:1;fill-rule:evenodd;stroke:none"
         d="m 235.059,585.922 v -0.004 c 1.261,-4.707 6.148,-7.527 10.851,-6.266 h 0.004 c 4.711,1.262 7.531,6.149 6.27,10.856 v 0.004 c -1.262,4.707 -6.149,7.527 -10.86,6.265 v 0 c -4.707,-1.261 -7.527,-6.148 -6.265,-10.855" /><path
         id="path48"
         style="fill:#ffffff;fill-opacity:1;fill-rule:evenodd;stroke:none"
         d="m 111.332,509.191 v -0.003 c 3.449,-3.446 9.09,-3.446 12.535,-0.004 v 0.004 c 3.453,3.449 3.453,9.089 0,12.539 v 0.003 c -3.445,3.442 -9.086,3.442 -12.535,-0.003 v 0 c -3.449,-3.45 -3.449,-9.09 0,-12.536" /><path
         id="path50"
         style="fill:#ffffff;fill-opacity:1;fill-rule:evenodd;stroke:none"
         d="m 42.5469,380.875 v 0 c 4.7109,-1.262 9.5976,1.559 10.8594,6.266 v 0.004 c 1.2617,4.71 -1.5586,9.597 -6.2696,10.859 v 0 c -4.707,1.258 -9.5937,-1.563 -10.8554,-6.274 h -0.004 c -1.2617,-4.707 1.5625,-9.593 6.2696,-10.855" /><path
         id="path52"
         style="fill:#ffffff;fill-opacity:1;fill-rule:evenodd;stroke:none"
         d="m 47.1367,235.359 v 0.004 c 4.711,1.262 7.5313,6.145 6.2696,10.852 v 0.004 c -1.2618,4.707 -6.1485,7.531 -10.8594,6.265 v 0 c -4.7071,-1.261 -7.5313,-6.148 -6.2656,-10.855 v -0.004 c 1.2617,-4.703 6.1484,-7.527 10.8554,-6.266" /><path
         id="path54"
         style="fill:#ffffff;fill-opacity:1;fill-rule:evenodd;stroke:none"
         d="m 123.867,111.633 v 0.004 c 3.453,3.445 3.453,9.09 0.004,12.531 l -0.004,0.004 c -3.445,3.449 -9.086,3.449 -12.535,0 v -0.004 c -3.449,-3.441 -3.449,-9.086 0,-12.531 l 0.004,-0.004 c 3.445,-3.445 9.086,-3.445 12.531,0" /><path
         id="path56"
         style="fill:#ffffff;fill-opacity:1;fill-rule:evenodd;stroke:none"
         d="m 252.184,42.8477 v 0.0039 c 1.261,4.7109 -1.559,9.5937 -6.266,10.8554 h -0.004 c -4.707,1.2657 -9.594,-1.5586 -10.855,-6.2656 v -0.0039 c -1.262,-4.707 1.558,-9.5898 6.265,-10.8555 h 0.004 c 4.707,-1.2617 9.594,1.5625 10.856,6.2657" /><path
         id="path58"
         style="fill:#ffffff;fill-opacity:1;fill-rule:evenodd;stroke:none"
         d="m 397.699,47.4375 v 0.0039 c -1.261,4.707 -6.148,7.5313 -10.855,6.2695 V 53.707 c -4.715,-1.2617 -7.535,-6.1445 -6.274,-10.8554 l 0.004,-0.0039 c 1.258,-4.7032 6.145,-7.5274 10.856,-6.2657 l 0.004,0.0039 c 4.707,1.2618 7.527,6.1446 6.265,10.8516" /><path
         id="path60"
         style="fill:#ffffff;fill-opacity:1;fill-rule:evenodd;stroke:none"
         d="m 521.426,124.168 v 0.004 c -3.449,3.449 -9.09,3.449 -12.539,0.004 v -0.004 c -3.449,-3.445 -3.449,-9.09 0,-12.535 v -0.004 c 3.449,-3.445 9.09,-3.445 12.539,0.004 v 0 c 3.445,3.445 3.445,9.09 0,12.531" /><path
         id="path62"
         style="fill:#ffffff;fill-opacity:1;fill-rule:evenodd;stroke:none"
         d="m 590.211,252.484 h -0.004 c -4.711,1.266 -9.594,-1.558 -10.855,-6.261 l -0.004,-0.004 c -1.262,-4.711 1.562,-9.594 6.269,-10.856 l 0.004,-0.004 c 4.707,-1.261 9.594,1.563 10.856,6.27 v 0.004 c 1.261,4.703 -1.563,9.59 -6.266,10.851" /><path
         id="path64"
         style="fill:#ffffff;fill-opacity:1;fill-rule:evenodd;stroke:none"
         d="m 567.41,443.52 h -0.004 c -4.418,-2.063 -6.347,-7.364 -4.289,-11.782 h 0.004 c 2.059,-4.422 7.359,-6.351 11.781,-4.289 v 0.004 c 4.418,2.055 6.344,7.36 4.286,11.777 v 0.004 c -2.059,4.418 -7.364,6.344 -11.778,4.286" /><path
         id="path66"
         style="fill:#ffffff;fill-opacity:1;fill-rule:evenodd;stroke:none"
         d="m 470.359,552.043 -0.004,-0.004 c -2.796,-3.992 -1.816,-9.551 2.176,-12.344 v -0.004 c 3.996,-2.793 9.551,-1.816 12.348,2.18 v 0 c 2.797,3.992 1.82,9.551 -2.176,12.344 l -0.004,0.004 c -3.988,2.797 -9.547,1.816 -12.34,-2.176" /><path
         id="path68"
         style="fill:#ffffff;fill-opacity:1;fill-rule:evenodd;stroke:none"
         d="m 332.047,597.5 v -0.004 c -0.426,-4.855 3.203,-9.18 8.058,-9.605 v 0 c 4.856,-0.422 9.18,3.203 9.606,8.062 v 0 c 0.426,4.856 -3.203,9.176 -8.059,9.602 h -0.004 c -4.855,0.425 -9.175,-3.2 -9.601,-8.055" /><path
         id="path70"
         style="fill:#ffffff;fill-opacity:1;fill-rule:evenodd;stroke:none"
         d="m 189.539,567.711 v 0 c 2.063,-4.422 7.363,-6.352 11.781,-4.289 v 0 c 4.418,2.058 6.348,7.359 4.289,11.781 v 0 c -2.062,4.418 -7.363,6.348 -11.781,4.289 h -0.004 c -4.414,-2.062 -6.347,-7.363 -4.285,-11.781" /><path
         id="path72"
         style="fill:#ffffff;fill-opacity:1;fill-rule:evenodd;stroke:none"
         d="m 81.0156,470.66 v 0 c 3.9961,-2.797 9.5547,-1.816 12.3477,2.176 v 0 c 2.8008,3.996 1.8203,9.551 -2.1758,12.344 l -0.0039,0.004 c -3.9883,2.796 -9.5469,1.816 -12.3438,-2.18 v 0 c -2.7929,-3.992 -1.8164,-9.551 2.1758,-12.344" /><path
         id="path74"
         style="fill:#ffffff;fill-opacity:1;fill-rule:evenodd;stroke:none"
         d="m 35.5586,332.348 h 0.0039 c 4.8555,-0.426 9.1797,3.203 9.6016,8.058 v 0 c 0.4257,4.86 -3.1993,9.184 -8.0586,9.61 h -0.0039 c -4.8516,0.422 -9.1758,-3.203 -9.5977,-8.059 v -0.004 c -0.4258,-4.855 3.2031,-9.18 8.0547,-9.605" /><path
         id="path76"
         style="fill:#ffffff;fill-opacity:1;fill-rule:evenodd;stroke:none"
         d="m 65.3477,189.844 h 0.0039 c 4.4179,2.058 6.3437,7.359 4.289,11.777 l -0.0039,0.004 c -2.0586,4.418 -7.3633,6.348 -11.7812,4.289 h -0.0039 c -4.4141,-2.062 -6.3438,-7.363 -4.2852,-11.781 l 0.0039,-0.004 c 2.0586,-4.418 7.3594,-6.348 11.7774,-4.285" /><path
         id="path78"
         style="fill:#ffffff;fill-opacity:1;fill-rule:evenodd;stroke:none"
         d="m 162.398,81.3203 v 0 c 2.801,3.9961 1.821,9.5508 -2.171,12.3477 h -0.004 c -3.993,2.8008 -9.551,1.8164 -12.348,-2.1758 v -0.0039 c -2.793,-3.9922 -1.816,-9.5469 2.176,-12.3438 h 0.004 c 3.992,-2.7968 9.547,-1.8164 12.343,2.1758" /><path
         id="path80"
         style="fill:#ffffff;fill-opacity:1;fill-rule:evenodd;stroke:none"
         d="m 300.707,35.8633 v 0 c 0.426,4.8594 -3.199,9.1797 -8.055,9.6055 h -0.004 c -4.855,0.4257 -9.179,-3.1993 -9.601,-8.0586 v -0.0039 c -0.426,-4.8516 3.203,-9.1758 8.058,-9.6016 v 0 c 4.86,-0.4258 9.176,3.2031 9.602,8.0586" /><path
         id="path82"
         style="fill:#ffffff;fill-opacity:1;fill-rule:evenodd;stroke:none"
         d="m 443.219,65.6523 v 0 c -2.063,4.418 -7.367,6.3477 -11.781,4.2891 v 0 c -4.422,-2.0625 -6.352,-7.3633 -4.29,-11.7812 v -0.0039 c 2.059,-4.418 7.36,-6.3477 11.782,-4.2852 v 0.0039 c 4.418,2.0547 6.347,7.3594 4.289,11.7773" /><path
         id="path84"
         style="fill:#ffffff;fill-opacity:1;fill-rule:evenodd;stroke:none"
         d="m 551.738,162.699 v 0.004 c -3.992,2.797 -9.55,1.817 -12.347,-2.172 v -0.004 c -2.797,-3.996 -1.817,-9.55 2.175,-12.347 l 0.004,-0.004 c 3.993,-2.793 9.547,-1.813 12.344,2.179 v 0.004 c 2.797,3.993 1.82,9.547 -2.176,12.34" /><path
         id="path86"
         style="fill:#ffffff;fill-opacity:1;fill-rule:evenodd;stroke:none"
         d="m 597.199,301.012 h -0.004 c -4.859,0.426 -9.179,-3.203 -9.605,-8.055 v -0.004 c -0.422,-4.859 3.203,-9.18 8.058,-9.605 h 0.004 c 4.852,-0.422 9.176,3.203 9.602,8.062 v 0 c 0.426,4.856 -3.203,9.176 -8.055,9.602" /><path
         id="path88"
         style="fill:#ffffff;fill-opacity:1;fill-rule:evenodd;stroke:none"
         d="m 541.57,485.184 -0.004,-0.004 c -3.992,-2.793 -4.972,-8.348 -2.179,-12.344 h 0.004 c 2.797,-3.992 8.355,-4.973 12.347,-2.176 v 0 c 3.996,2.793 4.973,8.352 2.176,12.344 v 0.004 c -2.797,3.992 -8.351,4.972 -12.344,2.176" /><path
         id="path90"
         style="fill:#ffffff;fill-opacity:1;fill-rule:evenodd;stroke:none"
         d="m 427.148,575.203 v 0 c -2.062,-4.422 -0.132,-9.723 4.286,-11.781 h 0.004 c 4.414,-2.063 9.718,-0.133 11.781,4.289 v 0 c 2.058,4.418 0.129,9.719 -4.289,11.781 h -0.004 c -4.418,2.059 -9.719,0.129 -11.778,-4.289" /><path
         id="path92"
         style="fill:#ffffff;fill-opacity:1;fill-rule:evenodd;stroke:none"
         d="m 283.047,595.953 v 0 c 0.422,-4.859 4.746,-8.484 9.598,-8.062 h 0.003 c 4.86,0.425 8.485,4.75 8.059,9.605 v 0.004 c -0.426,4.855 -4.742,8.48 -9.602,8.055 h -0.003 c -4.852,-0.426 -8.481,-4.746 -8.055,-9.602" /><path
         id="path94"
         style="fill:#ffffff;fill-opacity:1;fill-rule:evenodd;stroke:none"
         d="m 147.875,541.871 v 0 c 2.797,-3.996 8.355,-4.973 12.344,-2.18 h 0.004 c 3.996,2.797 4.976,8.356 2.175,12.348 v 0.004 c -2.796,3.992 -8.351,4.973 -12.347,2.172 v 0 c -3.992,-2.793 -4.969,-8.352 -2.176,-12.344" /><path
         id="path96"
         style="fill:#ffffff;fill-opacity:1;fill-rule:evenodd;stroke:none"
         d="m 57.8516,427.453 0.0039,-0.004 c 4.4179,-2.062 9.7226,-0.133 11.7812,4.285 v 0.004 c 2.0586,4.418 0.1328,9.719 -4.2851,11.782 h -0.0039 c -4.418,2.058 -9.7188,0.132 -11.7813,-4.29 v 0 c -2.0586,-4.417 -0.1289,-9.722 4.2852,-11.777" /><path
         id="path98"
         style="fill:#ffffff;fill-opacity:1;fill-rule:evenodd;stroke:none"
         d="m 37.1016,283.348 h 0.0039 c 4.8593,0.425 8.4843,4.746 8.0625,9.601 l -0.0039,0.004 c -0.4219,4.856 -4.7461,8.485 -9.6016,8.059 h -0.0039 c -4.8516,-0.426 -8.4805,-4.746 -8.0547,-9.602 v -0.004 c 0.4219,-4.855 4.7461,-8.48 9.5977,-8.058" /><path
         id="path100"
         style="fill:#ffffff;fill-opacity:1;fill-rule:evenodd;stroke:none"
         d="m 91.1836,148.176 0.0039,0.004 c 3.9961,2.797 4.9766,8.351 2.1797,12.343 l -0.0039,0.004 c -2.793,3.993 -8.3516,4.973 -12.3477,2.176 v -0.004 c -3.9922,-2.793 -4.9687,-8.347 -2.1758,-12.344 h 0.004 c 2.7929,-3.992 8.3515,-4.972 12.3398,-2.179" /><path
         id="path102"
         style="fill:#ffffff;fill-opacity:1;fill-rule:evenodd;stroke:none"
         d="m 205.609,58.1563 v 0.0039 c 2.059,4.4179 0.129,9.7187 -4.285,11.7812 H 201.32 C 196.902,72 191.602,70.0703 189.539,65.6523 v 0 c -2.062,-4.4179 -0.129,-9.7226 4.289,-11.7812 h 0.004 c 4.414,-2.0625 9.715,-0.1328 11.777,4.2852" /><path
         id="path104"
         style="fill:#ffffff;fill-opacity:1;fill-rule:evenodd;stroke:none"
         d="m 349.711,37.4063 v 0.0039 c -0.426,4.8593 -4.75,8.4843 -9.602,8.0586 h -0.004 c -4.855,-0.4258 -8.484,-4.7461 -8.058,-9.6055 v 0 c 0.426,-4.8555 4.746,-8.4844 9.605,-8.0586 h 0.004 c 4.852,0.4258 8.481,4.75 8.055,9.6016" /><path
         id="path106"
         style="fill:#ffffff;fill-opacity:1;fill-rule:evenodd;stroke:none"
         d="m 484.879,91.4883 v 0.0039 c -2.797,3.9922 -8.352,4.9766 -12.344,2.1797 l -0.004,-0.0039 c -3.992,-2.7969 -4.972,-8.3516 -2.176,-12.3477 h 0.004 c 2.793,-3.9922 8.352,-4.9726 12.344,-2.1758 l 0.004,0.0039 c 3.992,2.793 4.969,8.3477 2.172,12.3399" /><path
         id="path108"
         style="fill:#ffffff;fill-opacity:1;fill-rule:evenodd;stroke:none"
         d="m 574.902,205.914 v 0 c -4.422,2.059 -9.722,0.129 -11.781,-4.289 v 0 c -2.062,-4.422 -0.133,-9.723 4.285,-11.781 h 0.004 c 4.414,-2.063 9.719,-0.133 11.778,4.289 v 0 c 2.058,4.418 0.132,9.719 -4.286,11.781" /><path
         id="path110"
         style="fill:#ffffff;fill-opacity:1;fill-rule:evenodd;stroke:none"
         d="m 595.652,350.016 h -0.004 c -4.855,-0.426 -8.48,-4.75 -8.058,-9.606 v -0.004 c 0.426,-4.855 4.746,-8.484 9.605,-8.058 h 0.004 c 4.852,0.425 8.481,4.75 8.055,9.609 v 0 c -0.426,4.856 -4.75,8.481 -9.602,8.059" /></g></g></svg>